<svg version="1.0" xmlns="http://www.w3.org/2000/svg"
 width="128.000000pt" height="128.000000pt" viewBox="0 0 128.000000 128.000000"
 preserveAspectRatio="xMidYMid meet">

<g transform="translate(0.000000,128.000000) scale(0.100000,-0.100000)"
fill="rgb(249, 103, 67)" stroke="none">
<path d="M695 1214 c-51 -13 -92 -35 -253 -137 -177 -112 -214 -145 -248 -227
-26 -60 -29 -148 -7 -210 18 -55 18 -55 -4 -110 -30 -74 -31 -169 -1 -247 29
-79 112 -161 193 -193 73 -29 199 -32 256 -8 59 26 341 207 382 247 61 58 90
127 90 219 0 47 -7 91 -16 114 -15 36 -15 40 6 85 17 38 22 66 22 133 -1 77
-4 91 -34 148 -63 116 -167 183 -295 188 -39 2 -80 1 -91 -2z m174 -143 c82
-42 128 -125 118 -214 -8 -60 -12 -65 -35 -44 -10 9 -39 26 -65 37 -31 14 -47
27 -47 39 0 19 -24 45 -50 53 -19 7 -43 -5 -186 -97 -113 -71 -154 -105 -154
-127 0 -14 47 -58 62 -58 8 0 49 22 92 50 49 30 96 52 123 56 142 21 280 -121
244 -252 -20 -74 -43 -96 -210 -202 -183 -116 -195 -122 -257 -122 -119 0
-214 95 -214 212 0 77 9 85 56 55 22 -14 51 -29 67 -32 18 -5 27 -14 27 -28 0
-29 29 -57 59 -56 15 0 87 39 171 93 122 79 146 97 148 120 4 33 -22 66 -52
66 -12 0 -52 -21 -90 -45 -80 -52 -134 -69 -185 -60 -111 21 -191 113 -191
220 0 39 31 104 61 131 29 25 305 203 334 214 39 16 134 11 174 -9z"/>
</g>
</svg>
